<mxfile host="app.diagrams.net" modified="2025-10-12T00:00:00.000Z" agent="Claude" version="22.0.0">
  <diagram name="System Architecture" id="architecture">
    <mxGraphModel dx="1422" dy="794" grid="1" gridSize="10" guides="1" tooltips="1" connect="1" arrows="1" fold="1" page="1" pageScale="1" pageWidth="1169" pageHeight="827" math="0" shadow="0">
      <root>
        <mxCell id="0" />
        <mxCell id="1" parent="0" />

        <!-- Title -->
        <mxCell id="title" value="地震監視・Slack通知システム アーキテクチャ" style="text;html=1;strokeColor=none;fillColor=none;align=center;verticalAlign=middle;whiteSpace=wrap;rounded=0;fontSize=20;fontStyle=1" vertex="1" parent="1">
          <mxGeometry x="320" y="30" width="530" height="30" as="geometry" />
        </mxCell>

        <!-- User/Browser -->
        <mxCell id="user" value="ユーザー&lt;br&gt;(ブラウザ)" style="shape=actor;whiteSpace=wrap;html=1;fillColor=#dae8fc;strokeColor=#6c8ebf;" vertex="1" parent="1">
          <mxGeometry x="80" y="200" width="80" height="100" as="geometry" />
        </mxCell>

        <!-- Vercel/Next.js -->
        <mxCell id="vercel" value="&lt;b&gt;Vercel&lt;/b&gt;&lt;br&gt;Next.js 15.3&lt;br&gt;API Routes&lt;br&gt;React 19" style="rounded=1;whiteSpace=wrap;html=1;fillColor=#d5e8d4;strokeColor=#82b366;verticalAlign=top;" vertex="1" parent="1">
          <mxGeometry x="320" y="150" width="200" height="200" as="geometry" />
        </mxCell>

        <!-- Vercel内の要素 -->
        <mxCell id="vercel-api" value="/api/cron/fetch-earthquakes&lt;br&gt;(認証: Bearer Token)" style="rounded=1;whiteSpace=wrap;html=1;fillColor=#fff2cc;strokeColor=#d6b656;" vertex="1" parent="1">
          <mxGeometry x="330" y="200" width="180" height="60" as="geometry" />
        </mxCell>

        <mxCell id="vercel-db" value="Prisma ORM&lt;br&gt;AES-256-GCM" style="rounded=1;whiteSpace=wrap;html=1;fillColor=#fff2cc;strokeColor=#d6b656;" vertex="1" parent="1">
          <mxGeometry x="330" y="270" width="180" height="60" as="geometry" />
        </mxCell>

        <!-- Supabase -->
        <mxCell id="supabase" value="&lt;b&gt;Supabase&lt;/b&gt;&lt;br&gt;PostgreSQL 15" style="shape=cylinder3;whiteSpace=wrap;html=1;boundedLbl=1;backgroundOutline=1;size=15;fillColor=#e1d5e7;strokeColor=#9673a6;" vertex="1" parent="1">
          <mxGeometry x="640" y="200" width="120" height="100" as="geometry" />
        </mxCell>

        <!-- cron-job.org -->
        <mxCell id="cronjob" value="&lt;b&gt;cron-job.org&lt;/b&gt;&lt;br&gt;(外部cronサービス)&lt;br&gt;1分ごと実行" style="ellipse;shape=cloud;whiteSpace=wrap;html=1;fillColor=#f8cecc;strokeColor=#b85450;" vertex="1" parent="1">
          <mxGeometry x="320" y="440" width="200" height="100" as="geometry" />
        </mxCell>

        <!-- DMData.jp -->
        <mxCell id="dmdata" value="&lt;b&gt;DMData.jp&lt;/b&gt;&lt;br&gt;地震情報API" style="ellipse;whiteSpace=wrap;html=1;fillColor=#ffe6cc;strokeColor=#d79b00;" vertex="1" parent="1">
          <mxGeometry x="640" y="420" width="140" height="80" as="geometry" />
        </mxCell>

        <!-- Slack -->
        <mxCell id="slack" value="&lt;b&gt;Slack&lt;/b&gt;&lt;br&gt;Web API&lt;br&gt;通知送信" style="ellipse;whiteSpace=wrap;html=1;fillColor=#e1d5e7;strokeColor=#9673a6;" vertex="1" parent="1">
          <mxGeometry x="80" y="420" width="120" height="80" as="geometry" />
        </mxCell>

        <!-- Local Development -->
        <mxCell id="local" value="&lt;b&gt;ローカル開発&lt;/b&gt;&lt;br&gt;Docker Compose&lt;br&gt;node-cron" style="rounded=1;whiteSpace=wrap;html=1;fillColor=#f5f5f5;strokeColor=#666666;dashed=1;" vertex="1" parent="1">
          <mxGeometry x="840" y="200" width="140" height="100" as="geometry" />
        </mxCell>

        <!-- Arrows -->

        <!-- User to Vercel -->
        <mxCell id="arrow1" value="HTTPS" style="edgeStyle=orthogonalEdgeStyle;rounded=0;orthogonalLoop=1;jettySize=auto;html=1;exitX=1;exitY=0.5;exitDx=0;exitDy=0;entryX=0;entryY=0.5;entryDx=0;entryDy=0;" edge="1" parent="1" source="user" target="vercel">
          <mxGeometry relative="1" as="geometry" />
        </mxCell>

        <!-- Vercel to Supabase -->
        <mxCell id="arrow2" value="SQL&lt;br&gt;(Transaction Pooling)" style="edgeStyle=orthogonalEdgeStyle;rounded=0;orthogonalLoop=1;jettySize=auto;html=1;exitX=1;exitY=0.5;exitDx=0;exitDy=0;entryX=0;entryY=0.5;entryDx=0;entryDy=0;entryPerimeter=0;" edge="1" parent="1" source="vercel-db" target="supabase">
          <mxGeometry relative="1" as="geometry">
            <mxPoint x="570" y="250" as="sourcePoint" />
          </mxGeometry>
        </mxCell>

        <!-- cron-job.org to Vercel -->
        <mxCell id="arrow3" value="GET /api/cron/fetch-earthquakes&lt;br&gt;Authorization: Bearer &lt;SECRET&gt;" style="edgeStyle=orthogonalEdgeStyle;rounded=0;orthogonalLoop=1;jettySize=auto;html=1;exitX=0.5;exitY=0;exitDx=0;exitDy=0;entryX=0.5;entryY=1;entryDx=0;entryDy=0;strokeColor=#b85450;strokeWidth=2;" edge="1" parent="1" source="cronjob" target="vercel">
          <mxGeometry x="-0.2" relative="1" as="geometry">
            <mxPoint as="offset" />
          </mxGeometry>
        </mxCell>

        <!-- Vercel to DMData.jp -->
        <mxCell id="arrow4" value="REST API&lt;br&gt;?key=API_KEY&lt;br&gt;(20件取得)" style="edgeStyle=orthogonalEdgeStyle;rounded=0;orthogonalLoop=1;jettySize=auto;html=1;exitX=1;exitY=1;exitDx=0;exitDy=0;entryX=0;entryY=0.5;entryDx=0;entryDy=0;strokeColor=#d79b00;strokeWidth=2;" edge="1" parent="1" source="vercel" target="dmdata">
          <mxGeometry relative="1" as="geometry" />
        </mxCell>

        <!-- Vercel to Slack -->
        <mxCell id="arrow5" value="Slack通知&lt;br&gt;(地震発生時)" style="edgeStyle=orthogonalEdgeStyle;rounded=0;orthogonalLoop=1;jettySize=auto;html=1;exitX=0;exitY=1;exitDx=0;exitDy=0;entryX=0.5;entryY=0;entryDx=0;entryDy=0;strokeColor=#9673a6;strokeWidth=2;" edge="1" parent="1" source="vercel" target="slack">
          <mxGeometry relative="1" as="geometry" />
        </mxCell>

        <!-- WebSocket (User to DMData via Vercel) -->
        <mxCell id="arrow6" value="WebSocket&lt;br&gt;(リアルタイム監視)&lt;br&gt;/monitor画面" style="edgeStyle=orthogonalEdgeStyle;rounded=0;orthogonalLoop=1;jettySize=auto;html=1;exitX=1;exitY=0.25;exitDx=0;exitDy=0;entryX=0.5;entryY=1;entryDx=0;entryDy=0;strokeColor=#6c8ebf;strokeWidth=2;dashed=1;" edge="1" parent="1" source="user" target="dmdata">
          <mxGeometry relative="1" as="geometry">
            <Array as="points">
              <mxPoint x="200" y="225" />
              <mxPoint x="200" y="580" />
              <mxPoint x="710" y="580" />
            </Array>
          </mxGeometry>
        </mxCell>

        <!-- Legend -->
        <mxCell id="legend-box" value="" style="rounded=1;whiteSpace=wrap;html=1;fillColor=#f5f5f5;strokeColor=#666666;dashed=1;" vertex="1" parent="1">
          <mxGeometry x="840" y="350" width="280" height="190" as="geometry" />
        </mxCell>

        <mxCell id="legend-title" value="&lt;b&gt;凡例&lt;/b&gt;" style="text;html=1;strokeColor=none;fillColor=none;align=left;verticalAlign=middle;whiteSpace=wrap;rounded=0;fontSize=14;fontStyle=1" vertex="1" parent="1">
          <mxGeometry x="850" y="360" width="100" height="20" as="geometry" />
        </mxCell>

        <mxCell id="legend1" value="━━ : サーバーサイドcron (1分ごと)" style="text;html=1;strokeColor=#b85450;fillColor=none;align=left;verticalAlign=middle;whiteSpace=wrap;rounded=0;fontSize=11;strokeWidth=2;" vertex="1" parent="1">
          <mxGeometry x="850" y="390" width="260" height="20" as="geometry" />
        </mxCell>

        <mxCell id="legend2" value="━━ : DMData.jp API (地震情報)" style="text;html=1;strokeColor=#d79b00;fillColor=none;align=left;verticalAlign=middle;whiteSpace=wrap;rounded=0;fontSize=11;strokeWidth=2;" vertex="1" parent="1">
          <mxGeometry x="850" y="420" width="260" height="20" as="geometry" />
        </mxCell>

        <mxCell id="legend3" value="━━ : Slack通知" style="text;html=1;strokeColor=#9673a6;fillColor=none;align=left;verticalAlign=middle;whiteSpace=wrap;rounded=0;fontSize=11;strokeWidth=2;" vertex="1" parent="1">
          <mxGeometry x="850" y="450" width="260" height="20" as="geometry" />
        </mxCell>

        <mxCell id="legend4" value="- - - : WebSocket (ブラウザ起動時)" style="text;html=1;strokeColor=#6c8ebf;fillColor=none;align=left;verticalAlign=middle;whiteSpace=wrap;rounded=0;fontSize=11;strokeWidth=2;dashed=1;" vertex="1" parent="1">
          <mxGeometry x="850" y="480" width="260" height="20" as="geometry" />
        </mxCell>

        <mxCell id="legend5" value="重複検知: eventId + payloadHash" style="text;html=1;strokeColor=none;fillColor=none;align=left;verticalAlign=middle;whiteSpace=wrap;rounded=0;fontSize=11;" vertex="1" parent="1">
          <mxGeometry x="850" y="510" width="260" height="20" as="geometry" />
        </mxCell>

        <!-- Data Flow Notes -->
        <mxCell id="note1" value="&lt;b&gt;データフロー&lt;/b&gt;&lt;br&gt;1. cron-job.org が1分ごとにVercelを叩く&lt;br&gt;2. Vercel が DMData.jp から地震情報取得&lt;br&gt;3. Supabase に保存 (source='cron')&lt;br&gt;4. 通知条件に合致すれば Slack 通知" style="rounded=1;whiteSpace=wrap;html=1;fillColor=#fff2cc;strokeColor=#d6b656;align=left;verticalAlign=top;" vertex="1" parent="1">
          <mxGeometry x="80" y="580" width="380" height="100" as="geometry" />
        </mxCell>

        <mxCell id="note2" value="&lt;b&gt;セキュリティ&lt;/b&gt;&lt;br&gt;• CRON_SECRET: cronエンドポイント認証&lt;br&gt;• AES-256-GCM: APIキー・Tokenの暗号化&lt;br&gt;• Bearer Token: cron-job.org認証" style="rounded=1;whiteSpace=wrap;html=1;fillColor=#f8cecc;strokeColor=#b85450;align=left;verticalAlign=top;" vertex="1" parent="1">
          <mxGeometry x="500" y="580" width="280" height="100" as="geometry" />
        </mxCell>

      </root>
    </mxGraphModel>
  </diagram>
</mxfile>